<svg height="512pt" preserveAspectRatio="xMidYMid meet" viewBox="0 0 512 512" width="512pt" xmlns="http://www.w3.org/2000/svg"><g transform="matrix(.1 0 0 -.1 0 512)"><path d="m3882 5086c-134-54-237-122-337-221l-91-91-30 19c-16 10-91 49-167 87-160 79-389 158-567 195-288 61-669 38-752-45-23-23-28-37-28-75 0-51 12-66 100-129 25-17 53-48 63-69 18-36 18-38 0-69-10-17-31-40-46-52-45-33-180-28-392 14-154 31-186 35-345 35-202 0-252-10-395-79-89-42-220-138-269-197-20-23-26-42-26-78 0-71 29-93 160-125 128-31 234-81 238-113 4-26-29-45-205-116-242-99-371-176-476-285-89-93-138-193-145-297-6-95 1-121 41-145 43-26 78-25 154 6 46 18 78 24 116 22l52-3 3-42c4-59-16-91-110-175-277-247-348-345-404-567-18-71-24-120-24-203 0-120 6-140 50-163 41-21 68-19 125 11 45 25 53 26 93 15 123-33 278-190 571-579 51-67 127-160 171-206 43-46 85-97 94-113 8-17 30-43 48-58 27-23 39-26 76-22 98 11 129 106 66 197-48 69-121 221-155 320-151 451-100 1048 129 1505 342 685 1113 1126 2067 1184 77 4 151 13 163 20 15 8 40 49 68 108 51 110 108 185 195 255 101 81 100 81 72-18-17-57-23-97-19-119 9-46 57-85 104-85 49 1 73 16 117 73 20 26 37 47 39 47 1 0-7-39-17-87-26-117-30-428-7-459 8-12 49-66 91-122 210-276 398-669 500-1042l42-155 69-75c123-131 165-234 134-327-21-62-122-219-164-255l-32-27-37 24c-43 30-76 31-126 5-46-25-58-25-91 1-36 28-72 93-107 191-33 94-53 115-119 123-339 45-573 201-690 459-31 69-72 106-116 106-60 0-205-91-292-184-144-154-202-341-189-611 8-157 28-277 69-405 45-142 95-242 239-482 191-318 229-427 229-655 0-143-20-286-61-455-34-137-33-165 6-204 19-19 34-24 75-24 81 0 100 26 138 185 50 207 65 344 59 540-7 270-44 376-248 716-75 126-155 271-178 324-111 252-141 581-70 770 24 64 94 163 137 194l30 21 46-69c94-141 238-261 408-341 84-39 242-90 282-90 32 0 40-10 65-73 34-84 112-189 167-226 63-41 103-51 210-51 49-1 118-1 154-2 120-3 213 67 324 242 93 147 110 196 110 315 0 79-5 112-22 156-30 75-92 169-156 238-45 48-56 66-70 126-94 380-323 861-557 1168-57 76-59 79-59 140 0 162 39 340 101 464 21 43 39 90 39 106 0 39-24 81-55 95s-137 16-183 3c-31-9-33-8-26 11 15 48 6 100-22 129-40 42-111 40-222-5zm-1247-226c160-32 388-110 544-187l136-68-55-6c-30-4-102-12-160-19-246-26-545-102-785-197-844-335-1353-968-1466-1823-14-109-18-424-6-550l8-85-33 40c-209 255-367 378-526 408-72 14-73 14-38 116 46 135 105 213 275 360 163 141 209 204 231 317 19 95-4 186-65 252-45 51-119 82-196 85l-61 2 60 55c78 73 172 125 375 210 218 91 235 100 284 153 50 54 79 138 69 199-16 101-100 188-232 242l-55 23 58 26c153 68 322 73 608 17 185-36 337-48 412-31 122 26 205 88 255 189 42 85 46 178 10 256l-22 49 132-6c73-3 183-15 243-27z"/><path d="m3991 3510c-29-135 8-228 113-282 50-26 135-34 159-16 15 11 16 18 6 48-7 19-28 59-46 87-39 59-190 213-209 213-7 0-17-23-23-50z"/></g></svg>